<svg xmlns="http://www.w3.org/2000/svg" width="20" height="20" viewBox="0 0 20 20"><defs><style>.a{fill:none;}.b{fill:#2962ff;stroke-linejoin:round;}.c,.d{stroke:none;}.d{fill:#f8f9fa;}</style></defs><g transform="translate(-392 -114)"><rect class="a" width="20" height="20" transform="translate(392 114)"/><g transform="translate(397.745 115.46)"><g transform="translate(0)"><g class="b" transform="translate(-128)"><path class="c" d="M 133.8194274902344 17.52212142944336 L 133.3194274902344 17.52212142944336 L 130.1278076171875 17.52212142944336 L 129.6278076171875 17.52212142944336 L 129.6278076171875 17.02212142944336 L 129.6278076171875 9.01106071472168 L 127.9999923706055 9.01106071472168 L 127.4999923706055 9.01106071472168 L 127.4999923706055 8.51106071472168 L 127.4999923706055 5.851350784301758 L 127.4999923706055 5.351350784301758 L 127.9999923706055 5.351350784301758 L 129.6278076171875 5.351350784301758 L 129.6278076171875 3.191650629043579 C 129.6278076171875 1.156070709228516 131.2838592529297 -0.4999992847442627 133.3194274902344 -0.4999992847442627 L 135.4472045898438 -0.4999992847442627 L 135.9472045898438 -0.4999992847442627 L 135.9472045898438 7.147216933844902e-07 L 135.9472045898438 2.659710645675659 L 135.9472045898438 3.159710645675659 L 135.4472045898438 3.159710645675659 L 134.3833312988281 3.159710645675659 C 134.0723876953125 3.159710645675659 133.8194274902344 3.412670612335205 133.8194274902344 3.723590612411499 L 133.8194274902344 5.351350784301758 L 136.5110778808594 5.351350784301758 L 137.2495880126953 5.351350784301758 L 136.9753265380859 6.037040710449219 L 135.9114532470703 8.696750640869141 L 135.7857360839844 9.01106071472168 L 135.4472045898438 9.01106071472168 L 133.8194274902344 9.01106071472168 L 133.8194274902344 17.02212142944336 L 133.8194274902344 17.52212142944336 Z"/><path class="d" d="M 133.3194274902344 0 C 131.5565795898438 0 130.1278076171875 1.428791046142578 130.1278076171875 3.191650390625 L 130.1278076171875 5.851350784301758 L 128 5.851350784301758 L 128 8.51106071472168 L 130.1278076171875 8.51106071472168 L 130.1278076171875 17.02212142944336 L 133.3194274902344 17.02212142944336 L 133.3194274902344 8.51106071472168 L 135.4472045898438 8.51106071472168 L 136.5110778808594 5.851350784301758 L 133.3194274902344 5.851350784301758 L 133.3194274902344 3.723590850830078 C 133.3194274902344 3.136321067810059 133.7960510253906 2.659710884094238 134.3833312988281 2.659710884094238 L 135.4472045898438 2.659710884094238 L 135.4472045898438 0 L 133.3194274902344 0 M 133.3194274902344 -1 L 135.4472045898438 -1 C 135.9994964599609 -1 136.4472045898438 -0.5522785186767578 136.4472045898438 0 L 136.4472045898438 2.659710884094238 C 136.4472045898438 3.211990356445313 135.9994964599609 3.659710884094238 135.4472045898438 3.659710884094238 L 134.3833312988281 3.659710884094238 C 134.3480987548828 3.659710884094238 134.3194274902344 3.688370704650879 134.3194274902344 3.723590850830078 L 134.3194274902344 4.851350784301758 L 136.5110778808594 4.851350784301758 C 136.8428955078125 4.851350784301758 137.1531219482422 5.015951156616211 137.3391418457031 5.29072093963623 C 137.5251770019531 5.56549072265625 137.5627899169922 5.914650917053223 137.4395599365234 6.22274112701416 L 136.3756866455078 8.882451057434082 C 136.2238311767578 9.262110710144043 135.8561248779297 9.51106071472168 135.4472045898438 9.51106071472168 L 134.3194274902344 9.51106071472168 L 134.3194274902344 17.02212142944336 C 134.3194274902344 17.57439994812012 133.8717041015625 18.02212142944336 133.3194274902344 18.02212142944336 L 130.1278076171875 18.02212142944336 C 129.5755310058594 18.02212142944336 129.1278076171875 17.57439994812012 129.1278076171875 17.02212142944336 L 129.1278076171875 9.51106071472168 L 128 9.51106071472168 C 127.4477233886719 9.51106071472168 127 9.06334114074707 127 8.51106071472168 L 127 5.851350784301758 C 127 5.299070358276367 127.4477233886719 4.851350784301758 128 4.851350784301758 L 129.1278076171875 4.851350784301758 L 129.1278076171875 3.191650390625 C 129.1278076171875 0.88037109375 131.0081634521484 -1 133.3194274902344 -1 Z"/></g></g></g></g></svg>