<svg xmlns="http://www.w3.org/2000/svg" width="24" height="24" viewBox="0 0 24 24"><defs><style>.a{fill:none;}.b{fill:#f8f9fa;fill-rule:evenodd;}</style></defs><rect class="a" width="24" height="24"/><g transform="translate(0.248 0.248)"><path class="b" d="M5.851,9.752A2.927,2.927,0,0,1,3.9,12.511v6.018a.975.975,0,0,1-1.95,0V12.511a2.927,2.927,0,0,1,0-5.518V.975a.975.975,0,1,1,1.95,0V6.993A2.927,2.927,0,0,1,5.851,9.752Zm-1.95,0a.975.975,0,1,0-.975.975A.975.975,0,0,0,3.9,9.752Zm8.777,6.826a2.926,2.926,0,1,1-3.9-2.759V.975a.975.975,0,0,1,1.95,0V13.819A2.927,2.927,0,0,1,12.678,16.578Zm-1.95,0a.975.975,0,1,0-.975.975A.975.975,0,0,0,10.727,16.578ZM19.5,2.926A2.927,2.927,0,0,1,17.539,5.69a.854.854,0,0,1,.015.161V18.529a.975.975,0,1,1-1.95,0V5.851a.984.984,0,0,1,.013-.162A2.926,2.926,0,1,1,19.5,2.926Zm-1.95,0a.975.975,0,1,0-.975.975A.975.975,0,0,0,17.554,2.926Z" transform="translate(2 2)"/></g></svg>