<svg xmlns="http://www.w3.org/2000/svg" xmlns:xlink="http://www.w3.org/1999/xlink" width="20" height="20" viewBox="0 0 20 20"><defs><style>.a{fill:none;}.b{stroke:#fff;fill:url(#a);}.c{fill:url(#b);}.d{fill:url(#c);}.e{fill:url(#d);}.f{fill:#fff;}</style><radialGradient id="a" cx="0.205" cy="0.874" r="1.103" gradientTransform="translate(0)" gradientUnits="objectBoundingBox"><stop offset="0" stop-color="#fae100"/><stop offset="0.054" stop-color="#fadc04"/><stop offset="0.117" stop-color="#fbce0e"/><stop offset="0.183" stop-color="#fcb720"/><stop offset="0.251" stop-color="#fe9838"/><stop offset="0.305" stop-color="#ff7950"/><stop offset="0.492" stop-color="#ff1c74"/><stop offset="1" stop-color="#6c1cd1"/></radialGradient><linearGradient id="b" x1="0.369" y1="0.426" x2="-1.54" y2="-0.648" gradientUnits="objectBoundingBox"><stop offset="0" stop-color="#a1b5d8" stop-opacity="0"/><stop offset="0.309" stop-color="#90a2bd" stop-opacity="0.31"/><stop offset="0.755" stop-color="#7c8b9c" stop-opacity="0.757"/><stop offset="1" stop-color="#748290"/></linearGradient><linearGradient id="c" x1="0.5" y1="0.413" x2="0.5" y2="1.193" gradientUnits="objectBoundingBox"><stop offset="0" stop-color="#fae100" stop-opacity="0"/><stop offset="0.307" stop-color="#fca800" stop-opacity="0.306"/><stop offset="0.627" stop-color="#fe7300" stop-opacity="0.627"/><stop offset="0.868" stop-color="#ff5200" stop-opacity="0.867"/><stop offset="1" stop-color="#ff4500"/></linearGradient><linearGradient id="d" x1="0.816" y1="0.182" x2="0.172" y2="0.835" gradientUnits="objectBoundingBox"><stop offset="0" stop-color="#833ab4"/><stop offset="0.092" stop-color="#9c3495"/><stop offset="0.293" stop-color="#dc2546"/><stop offset="0.392" stop-color="#fd1d1d"/><stop offset="0.559" stop-color="#fc6831"/><stop offset="0.689" stop-color="#fc9b40"/><stop offset="0.752" stop-color="#fcaf45"/><stop offset="0.781" stop-color="#fdb750"/><stop offset="0.866" stop-color="#fecb6a"/><stop offset="0.942" stop-color="#ffd87a"/><stop offset="1" stop-color="#ffdc80"/></linearGradient></defs><g transform="translate(-392.364 -114.364)"><rect class="a" width="20" height="20" transform="translate(392.364 114.364)"/><g transform="translate(394.794 116.794)"><path class="b" d="M14.881,2.708A2.757,2.757,0,0,0,12.432.259a45.732,45.732,0,0,0-9.725,0A2.757,2.757,0,0,0,.259,2.708a45.732,45.732,0,0,0,0,9.725,2.757,2.757,0,0,0,2.449,2.449,45.733,45.733,0,0,0,9.725,0,2.757,2.757,0,0,0,2.449-2.449,45.732,45.732,0,0,0,0-9.725Zm0,0"/><path class="c" d="M42.04,31.237a2.446,2.446,0,0,0-2.173-2.173,40.6,40.6,0,0,0-8.629,0,2.447,2.447,0,0,0-2.173,2.173,40.6,40.6,0,0,0,0,8.629,2.447,2.447,0,0,0,2.173,2.173,40.58,40.58,0,0,0,8.629,0,2.446,2.446,0,0,0,2.173-2.173,40.581,40.581,0,0,0,0-8.629Zm0,0" transform="translate(-27.982 -27.982)"/><path class="d" d="M7.672,409.8q.016.157.032.314a2.757,2.757,0,0,0,2.449,2.449,45.73,45.73,0,0,0,9.725,0,2.757,2.757,0,0,0,2.449-2.449q.017-.157.032-.314Zm0,0" transform="translate(-7.445 -397.686)"/><path class="e" d="M95.09,100.173c.032-.223.056-.447.1-.668a2.449,2.449,0,0,1,2.382-2.148c1.526-.052,3.057-.055,4.583,0a2.453,2.453,0,0,1,2.422,2.452q.069,2.2,0,4.4a2.453,2.453,0,0,1-2.422,2.452c-1.526.055-3.057.056-4.583,0a2.5,2.5,0,0,1-2.426-2.458c-.008-.12-.034-.238-.051-.357v-3.671Zm4.76,5.669c.7,0,1.4.021,2.1,0a1.7,1.7,0,0,0,1.792-1.786q.047-2.042,0-4.086a1.693,1.693,0,0,0-1.792-1.783q-2.081-.044-4.164,0a1.683,1.683,0,0,0-1.789,1.757q-.056,2.068,0,4.138a1.694,1.694,0,0,0,1.789,1.76C98.47,105.863,99.16,105.842,99.85,105.842Zm0,0" transform="translate(-92.278 -94.439)"/><g transform="translate(2.812 2.878)"><path class="f" d="M95.09,100.173c.032-.223.056-.447.1-.668a2.449,2.449,0,0,1,2.382-2.148c1.526-.052,3.057-.055,4.583,0a2.453,2.453,0,0,1,2.422,2.452q.069,2.2,0,4.4a2.453,2.453,0,0,1-2.422,2.452c-1.526.055-3.057.056-4.583,0a2.5,2.5,0,0,1-2.426-2.458c-.008-.12-.034-.238-.051-.357v-3.671Zm4.76,5.669c.7,0,1.4.021,2.1,0a1.7,1.7,0,0,0,1.792-1.786q.047-2.042,0-4.086a1.693,1.693,0,0,0-1.792-1.783q-2.081-.044-4.164,0a1.683,1.683,0,0,0-1.789,1.757q-.056,2.068,0,4.138a1.694,1.694,0,0,0,1.789,1.76C98.47,105.863,99.16,105.842,99.85,105.842Zm0,0" transform="translate(-95.09 -97.317)"/><path class="f" d="M176.417,174a2.425,2.425,0,1,0,2.425,2.425A2.425,2.425,0,0,0,176.417,174Zm0,4.015a1.59,1.59,0,1,1,1.59-1.59A1.59,1.59,0,0,1,176.417,178.011Zm0,0" transform="translate(-171.659 -171.728)"/><path class="f" d="M324.439,151.319a.577.577,0,1,1-.577-.577A.577.577,0,0,1,324.439,151.319Zm0,0" transform="translate(-316.537 -149.162)"/></g></g></g></svg>