<svg xmlns="http://www.w3.org/2000/svg" width="217" height="61" viewBox="0 0 217 61"><defs><style>.a{fill:none;}.b{fill:#f8f9fa;}.c{fill:#bdc1c6;fill-rule:evenodd;}</style></defs><rect class="a" width="217" height="61"/><path class="b" d="M10.881-27.5a13.668,13.668,0,0,0-4.251.7,11.177,11.177,0,0,0-2.028.9A9.394,9.394,0,0,0,2.925-24.8l-.312.312a10.372,10.372,0,0,0-.858.936,7.557,7.557,0,0,0-.78,1.287,7.139,7.139,0,0,0-.624,2.886v.039a4.608,4.608,0,0,0,.624,2.457,1.833,1.833,0,0,0,.39.429,2.238,2.238,0,0,0,.858.468,10.463,10.463,0,0,1,4.641-4.446,10.8,10.8,0,0,1,4.407-1.014,6.2,6.2,0,0,1,3.9,1.209,6.391,6.391,0,0,1,.936.9,6.932,6.932,0,0,1,1.4,4.407,9.646,9.646,0,0,1-1.4,4.953,8.147,8.147,0,0,1-.819,1.17A7.86,7.86,0,0,1,14.469-8a12.531,12.531,0,0,1-1.287,1.014,7.186,7.186,0,0,1-3.9,1.326H9.2a4.053,4.053,0,0,1-2.574-.9,2.786,2.786,0,0,1-.936-2.106A3.523,3.523,0,0,1,5.85-9.75,2.925,2.925,0,0,1,6.9-11.271c.624-.507,1.794-.741,3.549-.741,1.6.039,2.5.039,2.691.039a8.32,8.32,0,0,0,1.911-.156,1.891,1.891,0,0,0,1.053-.78,3.594,3.594,0,0,0,.663-2.145v-.117a6.756,6.756,0,0,0-.429-2.184,9.023,9.023,0,0,0-.7-1.365,3.506,3.506,0,0,1-1.95,1.209,27.447,27.447,0,0,1-3.783.624,27.716,27.716,0,0,0-3.744.624,11.371,11.371,0,0,0-2.223.819,6.773,6.773,0,0,0-3,2.808A8.342,8.342,0,0,0,0-8.853v.195A8.924,8.924,0,0,0,1.092-4.446,8.016,8.016,0,0,0,4.875-.936,10.83,10.83,0,0,0,9.2,0h.234a12.1,12.1,0,0,0,4.134-.78A10.679,10.679,0,0,0,15.6-1.833a7.627,7.627,0,0,0,1.443-1.053c.156-.117.468-.468.975-.975.273-.312.546-.624.78-.936a17.422,17.422,0,0,0,1.443-2.184A17.379,17.379,0,0,0,21.372-9.4a18.529,18.529,0,0,0,.9-5.421v-.273a16.664,16.664,0,0,0-.234-2.652,15.223,15.223,0,0,0-.585-2.262,16.28,16.28,0,0,0-.741-1.833,9.276,9.276,0,0,0-4.953-4.8,12.962,12.962,0,0,0-4.6-.858Zm24.1,1.326c-1.443-1.755-7.254-1.716-9.243,2.028C22.035-17,29.211-6.279,23.985-4.524,23.673.429,29.094.819,30.381-.78s-.117-4.29-.234-6.552a2.684,2.684,0,0,0,.507-.078c.819,7.8,6.708,8.853,10.569,5.928,6.24-4.68,6.786-19.968-3.12-19.968a7.51,7.51,0,0,0-7.293,4.836A19.6,19.6,0,0,1,34.983-26.169Zm5.382,11.505A4.319,4.319,0,0,1,39.741-8c-3.471,2.535-8.346.351-7.917-3.978C33.618-15.717,38.415-16.419,40.365-14.664Zm9.4,3.159c-3.51,2.5-2.964,7.527.351,10.023C52.962.624,59.241.975,63.18-3.783c4.485-5.421,3.042-11.973.429-14.9-3.783-4.29-11.778-3-14.586.117-1.989,2.184-1.677,5.772.234,6.084,1.521-3.081,12.441-4.914,13.065.156C58.734-13.923,53.313-14,49.764-11.505Zm3.354,4.914c-1.833-.507-1.677-1.95.78-2.652s5.811-.546,7.488.624C59.319-5.694,54.678-6.162,53.118-6.591ZM77.961-25.233c3.081,1.131,4.953,5.109,5.148,8.619-1.131-4.017-5.967-6.708-10.764-3.159C66.105-15.093,65.6-4.758,70.707-1.4c4.446,2.964,10.257,1.17,9.828-4.875a1.823,1.823,0,0,0,.741-.234c-.936,6.786,4.173,8.58,7.41,3.9-1.794-.195-2.73-1.872-1.17-8.151,1.56-6.318,2.418-11.622.546-14.508C86.5-27.69,81.042-28.314,77.961-25.233Zm-5.5,17.589c-1.56-1.755-.663-5.265,1.6-6.279,4.173-1.989,7.566.156,7.878,2.652C79.521-5.226,74.256-5.538,72.462-7.644Zm18.252-9.4C94.5-15.951,89.739-5.226,91.806-1.56,93.132.9,98.553.39,99.8-2.5c-4.1-1.716,1.014-12.675-.975-15.873C97.461-20.592,92.2-19.773,90.714-17.043Zm-.663-5.109c.741,1.755,3.861,1.95,7.1.7,3.2-1.326,5.343-3.7,4.6-5.46-.741-1.677-3.861-2.067-7.1-.7C91.455-26.364,89.31-23.829,90.051-22.152ZM109.044-3.978a3.6,3.6,0,0,0-3.861-3.939c-2.145,0-3.861,1.092-3.861,3.939,0,2.5,1.4,3.978,3.861,3.978C107.718,0,109.044-1.521,109.044-3.978Zm12.987,1.911c1.17,2.106,4.212,3.666,8.346-.585-4.056-4.056.819-9.633-2.145-15.288-2.535-4.914-12.558-4.056-15.522-1.4-2.34,2.145-2.262,6.357-.429,7.1,3.081-4.641,11.154-4.524,12.4-2.106.468.9.195,2.067-.312,3.432-.273-1.6-1.482-2.886-3.822-3.315-3.861-.741-8.97,1.287-9.984,6.24C109-.546,117.234,3.471,122.694-4.134a10.212,10.212,0,0,0,.858-1.56.866.866,0,0,1,.429.2A9.854,9.854,0,0,1,122.031-2.067Zm-6.513-4.719c-1.365-.858-.117-2.418,2.34-2.535,2.691-.117,4.134.78,4.875,1.56C120.393-6.123,116.844-5.85,115.518-6.786ZM131.976.156c1.6-2.379,11.193,1.17,14.469-.7,3.081-1.755,2.613-5.811,1.482-8.112-.819,1.638-6.357,2.847-10.218,2.73,6.357-5.616,13.338-8.034,10.257-15.444-2.5,2.34-10.374-1.287-14.04.312-2.847,1.209-3.237,5.187-2.73,8.112,2.964-3.315,10.959-1.4,13.143-2.808C144.183-14.313,134-7.917,131.859-5.3,130.65-3.939,130.611-1.872,131.976.156Z" transform="translate(66 44.641)"/><g transform="translate(2.53 2.043)"><path class="c" d="M1934.812,599.807a26.485,26.485,0,0,0-7.733-.783,25,25,0,0,0-.814-7.164c-3.45-12.205-17.63-12.205-21.08,0a25,25,0,0,0-.813,7.164,26.457,26.457,0,0,0-7.73.783c-4.883,1.333-9.72,6.132-9.35,11.38-.127,5.1,4.6,9.709,9.367,11.013a26.313,26.313,0,0,0,7.29.8,25.154,25.154,0,0,0,.8,7.6c3.4,12.031,18.56,12.031,21.96,0a25.164,25.164,0,0,0,.8-7.6,26.312,26.312,0,0,0,7.29-.8c4.77-1.3,9.493-5.913,9.367-11.013C1944.529,605.939,1939.693,601.14,1934.812,599.807Zm-10.069,1.415.54.082c4.943-.39,8.514,1.038,10.717,3.273l-8.857,9.958c.056-8.166-4.39-13.152-11.99-13.457-2.656-.1-5.53-.164-8.466-.183C1905.559,583.844,1926.146,583.956,1924.743,601.222Zm-8.25,14.862c1.573-1.93,5.33-7.138,7.547-7.951,1.51,5.579,1.637,9.2-1.987,12.825-3,3.007-6.883,4.275-12.673,3.97C1910.083,622.367,1914.753,618.22,1916.493,616.084Zm-15.413-5.454,16.973.079a34.347,34.347,0,0,1-3.223,4.114C1912.319,617.712,1902.993,615.9,1901.08,610.63Zm-3.8-7.511c3.807-.026,7.637.042,11.423.039,5.3,0,10.246-.8,13.263,2.817-1.173,3.138-3.074,2.591-6.837,2.575-6.347-.03-16.533,1.11-20.723-2.712a5.578,5.578,0,0,1-1.64-2.634C1894.266,603.151,1895.773,603.128,1897.283,603.119Zm8.99,18.115-.087-.534c-10.817.852-15.077-6.968-12.784-12.949a15.621,15.621,0,0,0,5.377,2.407c1.934,6.142,5.85,7.61,12.917,8.055a67.7,67.7,0,0,0-5.37,6.689A18.215,18.215,0,0,1,1906.273,621.234Zm18.993-.534-.083.534c1.276,15.681-16.136,17.283-18.67,4.8a15.848,15.848,0,0,0,12.28-.317c5.767-2.67,12.3-13.234,18.52-19.455C1941.026,612.327,1937.013,621.623,1925.266,620.7Z" transform="translate(-1887.273 -582.706)"/><path class="c" d="M2407.521,851.813a.958.958,0,1,0-.958-.958A.96.96,0,0,0,2407.521,851.813Z" transform="translate(-2365.466 -829.128)"/></g></svg>