<svg xmlns="http://www.w3.org/2000/svg" width="30" height="30" viewBox="0 0 30 30"><defs><style>.a{fill:none;}.b{fill:#f8f9fa;}</style></defs><g transform="translate(-1458.222 -28.266)"><rect class="a" width="30" height="30" transform="translate(1458.222 28.266)"/><path class="b" d="M1694.312,999.7h23.38a1.41,1.41,0,0,1,0,2.812h-23.38a1.41,1.41,0,0,1,0-2.812Zm0,8.437h23.38a1.41,1.41,0,0,1,0,2.812h-23.38a1.41,1.41,0,0,1,0-2.812Zm0-16.873h23.38a1.41,1.41,0,0,1,0,2.812h-23.38a1.41,1.41,0,0,1,0-2.812Z" transform="translate(-232.83 -957.841)"/></g></svg>