<svg xmlns="http://www.w3.org/2000/svg" width="24" height="24" viewBox="0 0 24 24"><defs><style>.a{fill:none;}.b{fill:#9aa0a6;}</style></defs><g transform="translate(-1060 -28)"><rect class="a" width="24" height="24" transform="translate(1060 28)"/><path class="b" d="M2571.181,1857.366l4.523,4.523a.9.9,0,1,1-1.267,1.267l-4.523-4.523a6.941,6.941,0,0,1-4.433,1.538,7.237,7.237,0,1,1,7.237-7.237A6.949,6.949,0,0,1,2571.181,1857.366Zm-.271-4.433a5.428,5.428,0,1,0-5.428,5.428A5.444,5.444,0,0,0,2570.909,1852.933Z" transform="translate(-1495.207 -1814.553)"/></g></svg>