<svg xmlns="http://www.w3.org/2000/svg" width="20" height="20" viewBox="0 0 20 20"><defs><style>.a{fill:none;}.b{fill:#0084c6;stroke-linejoin:round;}.c,.d{stroke:none;}.d{fill:#f8f9fa;}</style></defs><g transform="translate(-392.364 -114.364)"><rect class="a" width="20" height="20" transform="translate(392.364 114.364)"/><g class="b" transform="translate(394.012 115.404)"><path class="c" d="M 13.36222553253174 16.42069244384766 C 13.09469509124756 16.42069244384766 12.80501556396484 16.33484268188477 12.50122547149658 16.16554260253906 L 12.4741849899292 16.15047264099121 L 12.44921493530273 16.13218307495117 L 8.946406364440918 13.56696224212646 L 7.399249076843262 15.04556655883789 C 7.167009353637695 15.27623653411865 6.877153873443604 15.56127262115479 6.278325080871582 15.56127262115479 L 5.741515159606934 15.56127262115479 L 5.779585361480713 15.02581310272217 L 6.055915355682373 11.13906288146973 L 6.070245265960693 10.93750286102295 L 6.220605373382568 10.80249309539795 L 10.70067501068115 6.779762744903564 L 4.65724515914917 10.56126308441162 L 4.462675094604492 10.68300247192383 L 4.24352502822876 10.61484241485596 L 0.4549151659011841 9.436432838439941 C -0.3850248456001282 9.176082611083984 -0.492484837770462 8.667813301086426 -0.4996848404407501 8.461382865905762 C -0.5115348100662231 8.121262550354004 -0.3313448429107666 7.640402793884277 0.5944151878356934 7.281053066253662 L 15.41549491882324 1.606712818145752 C 15.60787487030029 1.535082817077637 15.79558563232422 1.499592781066895 15.97775554656982 1.499592781066895 C 16.3552360534668 1.499592781066895 16.68651580810547 1.652272820472717 16.91056442260742 1.929492831230164 C 17.10698509216309 2.172532796859741 17.30727577209473 2.620002746582031 17.14601516723633 3.371582746505737 L 17.11464500427246 3.517802715301514 L 17.11416244506836 3.518278121948242 L 14.62433528900146 15.1851224899292 L 14.62361526489258 15.18849277496338 L 14.62284469604492 15.19185256958008 C 14.37010478973389 16.30095291137695 13.65706539154053 16.42069244384766 13.36222553253174 16.42069244384766 Z"/><path class="d" d="M 13.36222648620605 15.92068958282471 C 13.73937892913818 15.92068958282471 14.00708389282227 15.64361476898193 14.13534545898438 15.08076286315918 L 16.65644454956055 3.267382860183716 L 16.65714454650879 3.266692876815796 C 16.83731079101563 2.426992177963257 16.48195648193359 1.999594807624817 15.97775077819824 1.999594807624817 C 15.85669803619385 1.999594807624817 15.72713756561279 2.024204969406128 15.59426498413086 2.073662757873535 L 0.7753451466560364 7.747172832489014 C -0.2360148429870605 8.139742851257324 -0.2207048386335373 8.703542709350586 0.6034151911735535 8.958992958068848 L 4.392024993896484 10.13740253448486 L 13.19219493865967 4.630952835083008 C 13.34578227996826 4.529247283935547 13.49424457550049 4.486116409301758 13.60440635681152 4.486116409301758 C 13.79129695892334 4.486116409301758 13.86803817749023 4.610148429870605 13.6731653213501 4.782692909240723 L 6.554655075073242 11.17452239990234 L 6.278325080871582 15.06127262115479 C 6.673685073852539 15.06127262115479 6.844915390014648 14.89144325256348 7.05024528503418 14.68749237060547 L 8.903824806213379 12.91604328155518 L 12.74463558197021 15.72879314422607 C 12.97357368469238 15.85638332366943 13.18062496185303 15.92068958282471 13.36222648620605 15.92068958282471 M 13.36222553253174 16.92069244384766 C 13.00848484039307 16.92069244384766 12.63691520690918 16.81357192993164 12.25782489776611 16.60230255126953 C 12.22180557250977 16.58222198486328 12.18706512451172 16.5599422454834 12.15379524230957 16.53558349609375 L 8.988986968994141 14.21789073944092 L 7.748241901397705 15.40365982055664 C 7.497337341308594 15.65280628204346 7.078976154327393 16.0612735748291 6.278325080871582 16.0612735748291 C 6.000785350799561 16.0612735748291 5.735734939575195 15.94593238830566 5.54657506942749 15.74284267425537 C 5.357415199279785 15.53976249694824 5.261165142059326 15.26719284057617 5.280845165252686 14.99035263061523 L 5.557175159454346 11.10360240936279 C 5.575555324554443 10.84501266479492 5.693655014038086 10.60366249084473 5.886545181274414 10.43046283721924 L 6.065037727355957 10.27019119262695 L 4.922465324401855 10.98512268066406 C 4.76172399520874 11.08570098876953 4.577619552612305 11.13740062713623 4.391969680786133 11.1374044418335 C 4.292309761047363 11.13740730285645 4.192219257354736 11.1225118637085 4.095025062561035 11.09228324890137 L 0.3064151704311371 9.913872718811035 C -0.8392848372459412 9.558742523193359 -0.9884648323059082 8.791973114013672 -0.9993848204612732 8.478802680969238 C -1.013704895973206 8.067782402038574 -0.8492048382759094 7.305062770843506 0.4134851694107056 6.814942836761475 L 15.23671531677246 1.139762878417969 C 15.23960494995117 1.138662815093994 15.24250507354736 1.137562870979309 15.24540519714355 1.136482834815979 C 15.48943519592285 1.045652866363525 15.73582553863525 0.9995928406715393 15.97775554656982 0.9995928406715393 C 16.50921440124512 0.9995928406715393 16.97860527038574 1.218222856521606 17.29944610595703 1.615212798118591 C 17.56433486938477 1.942962884902954 17.83755493164063 2.531932830810547 17.63489532470703 3.47648286819458 C 17.63266944885254 3.486857891082764 17.63028335571289 3.497173547744751 17.62773323059082 3.507449626922607 L 15.11332511901855 15.28947257995605 C 15.11236476898193 15.29397296905518 15.1113748550415 15.29846286773682 15.11035537719727 15.30294322967529 C 14.76828479766846 16.80403327941895 13.68583488464355 16.92069244384766 13.36222553253174 16.92069244384766 Z"/></g></g></svg>