<svg xmlns="http://www.w3.org/2000/svg" width="20" height="20" viewBox="0 0 20 20"><defs><style>.a{fill:none;}.b{fill:#4caf50;}.c{fill:#f8f9fa;}.d,.e{stroke:none;}.e{fill:#f8f9fa;}</style></defs><g transform="translate(-392 -114)"><rect class="a" width="20" height="20" transform="translate(392 114)"/><g transform="translate(394.335 116.335)"><g class="b"><path class="d" d="M 7.666623592376709 15.82940292358398 C 6.141801834106445 15.82940292358398 4.664525985717773 15.4088134765625 3.378293752670288 14.61069011688232 L 0.6562033891677856 15.48087310791016 L -0.2840266227722168 15.78143310546875 L 0.02991336956620216 14.84559345245361 L 0.9046423435211182 12.23806381225586 C -0.01516076643019915 10.88723945617676 -0.4999966323375702 9.311671257019043 -0.4999966323375702 7.664703369140625 C -0.4999966323375702 3.162673473358154 3.161813259124756 -0.4999966323375702 7.662783145904541 -0.4999966323375702 C 12.16759300231934 -0.4999966323375702 15.82940292358398 3.162673473358154 15.82940292358398 7.664703369140625 C 15.82940292358398 12.16673374176025 12.16759300231934 15.82940292358398 7.666623592376709 15.82940292358398 Z"/><path class="e" d="M 7.662783145904541 3.814697265625e-06 C 3.436663627624512 3.814697265625e-06 3.814697265625e-06 3.437623023986816 3.814697265625e-06 7.664703369140625 C 3.814697265625e-06 9.341353416442871 0.5403633117675781 10.89537334442139 1.459163665771484 12.15717315673828 L 0.5039529800415039 15.00461292266846 L 3.4500732421875 14.0628137588501 C 4.662053108215332 14.86569309234619 6.107813835144043 15.32940292358398 7.666623592376709 15.32940292358398 C 11.89274311065674 15.32940292358398 15.32940292358398 11.89083290100098 15.32940292358398 7.664703369140625 C 15.32940292358398 3.438573837280273 11.89274311065674 3.814697265625e-06 7.666623592376709 3.814697265625e-06 L 7.662783145904541 3.814697265625e-06 M 7.662783145904541 -0.9999961853027344 L 7.666623592376709 -0.9999961853027344 C 12.44329357147217 -0.9999961853027344 16.32940292358398 2.88697338104248 16.32940292358398 7.664703369140625 C 16.32940292358398 12.44243335723877 12.44329357147217 16.32940292358398 7.666623592376709 16.32940292358398 C 6.12673282623291 16.32940292358398 4.632298469543457 15.92509841918945 3.314662933349609 15.15594863891602 L 0.8084430694580078 15.95712375640869 L -1.072006225585938 16.55826377868652 L -0.444127082824707 14.68657302856445 L 0.3531045913696289 12.31006240844727 C -0.5337991714477539 10.92365646362305 -0.9999961853027344 9.328502655029297 -0.9999961853027344 7.664703369140625 C -0.9999961853027344 2.88697338104248 2.886113166809082 -0.9999961853027344 7.662783145904541 -0.9999961853027344 Z"/></g><path class="c" d="M116.179,124.406a2.163,2.163,0,0,1-1.5,1.082c-.4.085-.924.153-2.685-.577a9.6,9.6,0,0,1-3.816-3.371,4.378,4.378,0,0,1-.91-2.312,2.447,2.447,0,0,1,.784-1.865,1.114,1.114,0,0,1,.784-.275c.095,0,.18,0,.257.009.225.01.338.023.487.378.185.446.635,1.545.689,1.658a.456.456,0,0,1,.033.415,1.324,1.324,0,0,1-.248.352c-.113.13-.22.23-.333.37-.1.122-.22.252-.09.477a6.8,6.8,0,0,0,1.244,1.545,5.635,5.635,0,0,0,1.8,1.109.485.485,0,0,0,.54-.085,9.275,9.275,0,0,0,.6-.793.428.428,0,0,1,.55-.167c.207.072,1.3.613,1.527.725s.374.167.428.262A1.909,1.909,0,0,1,116.179,124.406Z" transform="translate(-104.052 -113.582)"/></g></g></svg>